<?xml version="1.0" standalone="no"?>
<!DOCTYPE svg PUBLIC "-//W3C//DTD SVG 20010904//EN"
 "http://www.w3.org/TR/2001/REC-SVG-20010904/DTD/svg10.dtd">
<svg version="1.0" xmlns="http://www.w3.org/2000/svg"
 width="300.000000pt" height="300.000000pt" viewBox="0 0 300.000000 300.000000"
 preserveAspectRatio="xMidYMid meet">
<metadata>
Created by potrace 1.10, written by Peter Selinger 2001-2011
</metadata>
<g transform="translate(0.000000,300.000000) scale(0.100000,-0.100000)"
fill="#000000" stroke="none">
<path d="M1625 2890 c-47 -22 -120 -94 -111 -109 4 -6 24 1 53 20 60 37 110
52 134 38 29 -15 23 -35 -22 -80 -22 -22 -38 -43 -35 -46 3 -3 25 1 48 10 141
51 166 57 221 57 47 0 70 -6 104 -26 l44 -25 -46 -41 c-64 -57 -78 -88 -81
-183 -1 -44 -6 -108 -9 -143 -5 -41 -3 -72 5 -92 14 -33 30 -31 30 3 0 12 9
46 20 75 14 35 20 76 20 127 0 89 16 134 60 165 44 32 69 18 120 -69 51 -85
55 -88 126 -110 32 -9 60 -23 62 -30 2 -7 -2 -12 -9 -10 -30 4 -39 -2 -39 -26
0 -14 5 -25 10 -25 6 0 10 6 8 14 -2 8 2 15 7 16 6 1 12 -7 14 -17 1 -10 10
-26 18 -35 18 -20 6 -48 -31 -68 -27 -14 -32 -25 -16 -35 5 -3 23 4 39 16 36
26 51 18 51 -27 0 -19 5 -43 12 -53 20 -32 -3 -65 -58 -86 -84 -31 -133 -66
-157 -115 -21 -43 -24 -45 -57 -40 -27 4 -36 10 -38 28 -2 12 -7 22 -12 22 -5
0 -18 17 -29 38 -19 38 -70 93 -183 201 -50 47 -55 55 -42 68 16 16 29 61 21
70 -4 3 0 15 8 27 19 27 19 80 0 96 -8 7 -15 23 -15 36 0 14 -9 28 -22 35 -13
7 -30 22 -40 34 -24 31 -121 44 -147 21 -10 -9 -24 -16 -33 -16 -19 0 -48 -31
-48 -52 0 -17 31 -48 49 -48 6 0 25 9 40 21 37 27 68 18 87 -27 31 -74 -12
-164 -79 -164 -54 0 -72 20 -72 79 0 42 -3 51 -18 51 -40 0 -86 -77 -57 -95
13 -8 13 -52 0 -60 -19 -12 -50 6 -50 28 0 41 -13 50 -56 38 -22 -6 -50 -11
-63 -11 -13 0 -32 -11 -44 -26 -18 -24 -21 -25 -30 -8 -6 10 -10 31 -11 48 -1
22 -8 34 -23 41 -18 7 -23 19 -25 50 -1 22 -2 51 -3 65 -2 35 -13 50 -30 43
-12 -4 -15 -24 -15 -84 0 -64 -3 -79 -15 -79 -15 0 -19 -11 -15 -39 1 -8 -4
-25 -11 -38 -9 -18 -10 -29 -1 -48 7 -14 12 -66 12 -115 0 -76 -3 -89 -17 -94
-10 -3 -31 -17 -47 -31 -21 -18 -27 -31 -24 -50 4 -17 1 -25 -8 -25 -8 0 -14
-5 -14 -11 0 -21 -154 11 -172 36 -4 5 -6 16 -3 23 11 30 -6 40 -71 40 -35 0
-64 -4 -64 -9 0 -5 4 -9 8 -9 4 0 8 -16 9 -36 1 -19 8 -43 17 -53 11 -12 17
-42 20 -89 3 -72 -5 -88 -29 -56 -9 13 -16 14 -32 5 -12 -6 -35 -8 -51 -5 -17
4 -32 1 -36 -5 -13 -20 -33 -11 -52 24 -17 32 -22 35 -64 35 -25 0 -50 -4 -55
-9 -6 -5 -42 -11 -82 -13 -87 -6 -123 -25 -123 -67 0 -16 6 -31 15 -35 8 -3
15 -13 15 -21 0 -12 6 -15 20 -10 11 4 20 2 20 -4 0 -6 -16 -11 -35 -11 -43 0
-44 -10 -4 -32 24 -14 29 -22 24 -39 -7 -21 -5 -22 33 -15 24 3 43 2 47 -4 3
-5 16 -10 27 -10 31 0 90 -40 84 -57 -7 -16 23 -31 33 -16 8 13 40 12 38 -1
-1 -6 8 -10 21 -9 19 2 21 -1 16 -22 -5 -20 -1 -27 20 -36 14 -7 23 -15 20
-20 -2 -4 3 -12 12 -17 12 -7 15 -15 9 -28 -13 -30 -12 -38 6 -59 10 -11 22
-31 27 -44 5 -14 29 -35 57 -50 27 -14 51 -33 53 -41 4 -12 1 -11 -15 2 -22
20 -43 23 -43 7 0 -5 16 -17 35 -25 27 -11 35 -20 35 -40 0 -14 -4 -23 -10
-19 -5 3 -10 12 -10 19 0 8 -7 19 -15 26 -13 11 -15 9 -15 -13 0 -13 6 -30 14
-36 8 -7 13 -23 11 -36 -1 -18 3 -25 15 -25 9 0 29 -15 46 -32 26 -30 26 -31
2 -9 -42 37 -43 36 -73 -159 -3 -19 -9 -69 -15 -110 -14 -117 -36 -181 -73
-213 l-32 -28 24 -18 c14 -11 31 -16 39 -13 11 4 13 -2 7 -26 -6 -27 -4 -32
13 -32 11 0 35 -7 55 -15 32 -13 35 -13 40 3 3 9 8 25 12 35 6 15 4 16 -18 8
-14 -5 -28 -7 -31 -4 -3 4 -6 2 -6 -4 0 -6 7 -14 16 -17 9 -4 14 -9 11 -12 -3
-3 -14 0 -25 7 -18 13 -17 17 22 79 l41 65 76 3 c70 3 77 2 82 -17 3 -12 13
-21 22 -21 12 0 16 6 12 20 -6 23 18 28 26 6 6 -15 -11 -36 -29 -36 -7 0 -10
-12 -8 -31 2 -17 0 -38 -6 -48 -8 -14 -10 -14 -11 4 -1 11 -2 27 -3 35 -2 24
-54 20 -60 -4 -3 -12 -1 -24 4 -28 6 -5 8 -5 5 -1 -6 8 35 37 42 29 4 -3 0 -6
-8 -6 -12 0 -11 -2 1 -11 13 -9 12 -10 -3 -5 -10 3 -16 2 -13 -2 3 -5 -13 -26
-36 -48 -22 -21 -37 -32 -33 -24 6 12 5 13 -6 2 -20 -18 -31 -15 -24 8 5 16 3
19 -12 14 -16 -5 -16 -4 1 10 13 11 17 19 10 26 -6 6 -16 0 -27 -20 -17 -28
-17 -29 5 -50 16 -14 30 -19 47 -15 14 4 30 0 40 -9 11 -10 46 -18 94 -21 66
-5 77 -4 77 10 0 11 6 15 18 11 9 -3 31 -8 47 -12 17 -4 38 -13 47 -21 9 -8
21 -12 26 -9 6 3 30 -12 53 -34 29 -27 46 -37 53 -30 13 13 53 13 61 0 9 -15
45 -12 62 6 11 10 26 14 45 10 23 -5 28 -2 28 15 0 11 -6 26 -13 33 -9 9 -11
30 -7 65 6 58 40 104 87 116 16 3 35 12 43 20 10 9 32 11 67 8 48 -5 52 -8 58
-35 5 -23 11 -28 23 -22 10 4 37 9 62 12 43 3 46 2 70 -37 28 -46 42 -47 51
-5 l6 29 11 -27 c12 -30 29 -36 38 -14 3 8 15 11 31 8 20 -4 24 -2 18 8 -5 8
-4 11 2 7 5 -3 28 3 51 14 32 16 42 27 42 45 0 13 6 24 13 24 7 0 24 13 37 28
14 15 40 38 58 50 17 13 32 31 32 40 1 23 26 56 34 43 3 -5 2 -21 -4 -36 -14
-36 2 -55 47 -55 23 0 35 5 39 17 3 10 8 24 10 32 4 11 7 12 16 3 13 -13 78
-17 78 -5 0 4 -9 16 -20 28 l-21 22 30 12 c21 9 35 10 49 2 12 -6 25 -11 31
-11 21 0 11 48 -16 75 -22 22 -34 26 -60 22 -41 -7 -43 4 -3 21 35 16 39 36
10 54 -11 7 -20 21 -20 31 0 10 -8 20 -17 23 -10 3 -26 10 -36 15 -14 8 -24 6
-36 -5 -10 -9 -26 -16 -36 -16 -14 0 -16 -6 -11 -32 6 -30 3 -29 -72 43 -43
40 -83 86 -89 102 -6 15 -17 27 -23 27 -9 0 -9 -5 1 -18 7 -9 2 -7 -12 5 -33
30 -81 39 -121 22 -36 -15 -129 -69 -154 -90 -13 -11 -14 -9 -9 17 4 16 8 34
10 41 7 23 -17 88 -43 116 -36 37 -46 34 -38 -13 3 -22 3 -40 -1 -40 -4 0 -24
16 -44 36 -48 47 -110 57 -151 24 -16 -12 -28 -30 -28 -41 0 -11 -13 -32 -29
-47 -49 -45 -64 -112 -40 -181 12 -33 19 -37 34 -22 7 6 10 -9 10 -42 0 -57
47 -173 65 -162 5 3 10 27 10 53 l0 47 20 -25 c17 -21 21 -23 30 -10 8 13 11
11 16 -7 8 -28 34 -31 34 -4 0 63 73 -15 83 -88 7 -57 1 -71 -34 -71 -16 0
-29 -5 -29 -11 0 -8 -17 -10 -56 -5 -45 5 -61 3 -75 -10 -16 -15 -19 -13 -41
23 -38 61 -57 114 -61 169 -5 63 -12 76 -40 69 -25 -7 -25 -6 -76 145 -45 135
-46 139 -43 205 3 81 -3 103 -31 107 -14 2 -22 10 -22 23 -1 11 -4 35 -9 52
-4 18 -9 55 -10 81 -2 27 -6 54 -9 59 -4 6 -9 37 -12 69 -3 32 -8 79 -12 104
-7 51 -8 58 -22 235 -6 72 -13 136 -16 143 -2 7 -7 64 -11 127 -6 121 1 189
17 164 8 -13 4 -90 -7 -129 -2 -10 4 -15 21 -16 24 -2 32 6 19 19 -4 3 -7 38
-8 77 -2 86 7 97 87 106 52 6 57 5 57 -13 0 -30 32 -53 73 -53 33 0 36 -2 34
-27 -2 -24 2 -28 27 -31 18 -2 30 -11 34 -24 4 -16 11 -19 33 -14 32 6 44 -5
54 -51 3 -18 11 -35 16 -39 16 -10 69 7 69 22 0 8 5 14 10 14 6 0 10 -6 9 -12
-5 -41 3 -59 29 -69 15 -5 38 -21 51 -35 17 -19 30 -24 47 -20 40 11 87 -16
102 -58 8 -21 12 -39 9 -42 -2 -2 -23 3 -47 11 -45 16 -110 20 -110 8 0 -5 19
-17 43 -28 23 -11 65 -39 94 -63 29 -23 57 -42 62 -42 21 0 28 100 10 146 -10
27 -9 27 9 11 10 -9 32 -17 49 -17 29 0 30 -1 36 -60 8 -75 -6 -190 -33 -258
-11 -29 -25 -88 -31 -130 -6 -42 -15 -81 -20 -87 -5 -5 -9 -16 -9 -25 0 -9
-11 -27 -25 -40 -19 -18 -25 -34 -25 -66 0 -23 -6 -47 -14 -53 -12 -10 -17 -3
-29 36 -34 104 -40 155 -28 230 14 89 14 216 1 264 -18 64 -52 102 -130 145
-41 23 -89 54 -106 68 -28 23 -70 93 -90 151 -6 17 -8 16 -14 -10 -18 -84 58
-228 133 -251 132 -40 183 -108 173 -231 -20 -249 -20 -232 14 -320 17 -45 39
-91 48 -102 16 -19 20 -19 50 -6 17 8 32 21 32 29 0 11 46 36 66 36 10 0 2
-26 -13 -42 -20 -22 -10 -36 12 -18 14 11 17 10 22 -8 3 -12 12 -22 19 -22 22
0 16 -27 -6 -33 -27 -7 -25 -29 5 -57 28 -27 36 -8 8 22 -9 10 -11 18 -5 18 6
0 16 9 22 20 9 16 7 26 -10 49 -11 16 -20 34 -20 41 0 6 -4 8 -10 5 -5 -3 -8
0 -5 7 10 28 -9 37 -52 26 -30 -7 -43 -16 -45 -31 -2 -11 -9 -22 -16 -25 -11
-3 -12 0 -3 15 5 11 8 29 5 40 -4 14 4 32 24 54 l30 34 7 -38 c10 -54 22 -37
27 42 4 57 10 76 32 102 18 21 25 38 20 51 -5 17 -3 18 14 9 33 -18 50 -13 60
17 18 49 13 -2 -9 -78 -11 -41 -35 -102 -53 -135 -34 -60 -38 -98 -10 -74 20
17 17 34 -3 18 -17 -13 -17 -13 -1 6 40 48 80 157 108 300 17 81 42 174 56
206 39 86 132 166 224 194 18 5 14 0 -15 -20 -109 -74 -162 -161 -194 -317
-22 -108 -37 -144 -110 -268 -27 -46 -48 -87 -45 -89 2 -2 5 -2 7 0 93 135
142 241 166 357 25 126 50 180 116 248 51 52 138 104 174 104 20 0 37 17 28
27 -3 3 -30 0 -59 -7 -213 -50 -327 -174 -354 -386 -3 -30 -11 -54 -16 -54
-11 0 -1 131 13 168 5 13 9 36 9 51 0 16 10 37 25 51 14 13 25 32 25 42 0 10
5 18 10 18 6 0 10 3 10 8 0 9 -72 32 -100 32 -27 0 -25 18 5 62 19 28 40 42
86 59 41 15 69 33 90 58 30 37 31 48 3 105 -8 16 -14 41 -14 56 0 15 -6 33
-14 39 -8 7 -12 20 -9 31 3 11 -3 25 -15 36 -16 13 -18 22 -11 41 15 41 -4 70
-59 87 -77 22 -108 42 -122 78 -7 18 -30 54 -51 79 -25 31 -36 53 -33 66 7 24
-57 85 -112 108 -42 17 -185 21 -215 5 -15 -9 -19 -7 -19 5 0 9 -13 30 -29 46
-35 35 -84 38 -146 9z m106 0 c19 0 49 -41 49 -66 0 -21 3 -25 18 -19 35 15
128 26 171 20 49 -7 103 -35 144 -73 24 -23 26 -28 13 -41 -14 -13 -11 -18 19
-45 19 -17 49 -58 67 -90 34 -61 46 -70 153 -103 28 -8 30 -12 28 -56 -2 -35
1 -49 12 -53 8 -4 15 -18 15 -34 0 -15 7 -33 15 -40 9 -7 15 -25 13 -39 -1
-14 6 -43 17 -64 28 -55 10 -82 -84 -128 -41 -19 -84 -48 -97 -65 -22 -26 -24
-39 -24 -136 0 -89 -4 -118 -26 -180 -45 -125 -73 -227 -83 -291 -6 -41 -9
-50 -9 -27 -2 52 22 174 52 268 22 71 26 101 26 206 0 111 2 126 23 157 20 31
67 60 156 98 17 7 39 24 48 38 15 23 15 27 0 56 -12 22 -15 43 -11 65 6 30 4
32 -25 38 -29 6 -30 8 -16 24 20 23 19 37 -5 45 -16 5 -19 14 -17 53 l2 47
-45 14 c-77 24 -94 37 -134 106 -33 57 -82 105 -108 105 -15 0 -80 -65 -89
-88 -5 -13 -12 -64 -15 -114 -4 -51 -15 -109 -25 -136 l-19 -47 6 65 c3 36 5
96 4 134 -1 95 12 128 76 184 l54 48 -22 21 c-62 58 -156 67 -270 27 -113 -40
-117 -40 -86 -15 36 29 44 58 22 82 -25 27 -70 24 -133 -11 l-55 -30 25 26
c37 40 118 77 147 68 8 -2 18 -4 23 -4z m-6 -280 c3 -5 20 -10 36 -10 22 0 32
-6 39 -24 5 -14 19 -26 32 -28 17 -2 24 -11 26 -32 2 -16 10 -36 19 -44 15
-16 10 -64 -8 -70 -5 -2 -9 -20 -9 -40 0 -42 -24 -72 -57 -72 -16 0 -27 -8
-33 -25 -10 -27 -29 -32 -47 -14 -8 8 -14 5 -23 -11 -9 -17 -17 -20 -38 -16
-26 6 -26 6 -8 -9 14 -11 16 -15 5 -15 -8 0 -20 9 -27 20 -7 11 -21 20 -32 20
-11 0 -20 5 -20 10 0 16 32 11 47 -7 14 -17 14 -17 9 0 -3 10 -6 23 -6 28 0 5
-11 7 -24 3 -29 -7 -46 18 -46 65 0 17 -5 31 -11 31 -18 0 -5 52 18 67 21 14
22 14 17 -19 -6 -42 25 -95 61 -104 73 -18 135 42 135 130 0 81 -43 127 -97
104 -15 -7 -34 -20 -40 -28 -12 -13 -15 -13 -28 5 -20 26 -15 49 12 53 11 2
29 12 39 23 18 20 49 25 59 9z m-506 -248 c-6 -15 -5 -21 1 -17 22 13 45 -5
47 -37 2 -24 0 -29 -7 -18 -8 13 -10 12 -10 -2 0 -14 -8 -18 -32 -17 -30 1
-30 2 -9 8 44 12 34 28 -14 25 -35 -2 -44 0 -37 9 5 7 8 22 6 35 -3 18 1 22
24 23 l27 1 -25 7 -25 7 23 8 c20 7 31 26 15 26 -5 0 -6 30 -4 67 l4 68 12
-85 c7 -50 8 -95 4 -108z m621 -97 c0 -26 36 -88 70 -120 48 -45 114 -145 96
-145 -8 0 -18 5 -22 11 -3 6 -17 8 -31 4 -18 -4 -31 0 -48 17 -12 13 -33 30
-46 39 -17 12 -24 26 -24 50 0 42 -26 50 -45 14 -19 -36 -54 -30 -58 10 -2 17
-13 40 -24 51 -23 25 -11 38 26 28 19 -4 28 0 41 20 14 22 29 30 58 35 4 0 7
-6 7 -14z m-612 -28 c7 -8 9 -29 5 -51 -4 -26 -9 -33 -14 -24 -6 8 -9 -1 -9
-27 0 -36 -1 -38 -16 -23 -15 15 -14 19 9 53 27 40 26 74 -3 72 -14 -1 -16 -5
-9 -18 11 -22 12 -32 0 -25 -5 4 -7 -2 -4 -13 3 -10 0 -22 -6 -25 -7 -5 -11
10 -11 43 0 47 2 51 24 51 13 0 28 -6 34 -13z m35 -123 c3 -67 1 -127 -4 -135
-14 -23 -30 3 -35 56 -4 45 -3 47 13 34 17 -13 17 -13 1 7 -20 23 -24 39 -7
28 8 -4 9 1 4 16 -4 13 -3 20 2 17 5 -3 9 21 8 53 0 104 12 49 18 -76z m777
-54 c17 -26 37 -69 45 -96 15 -48 21 -164 9 -164 -4 0 -24 16 -46 36 -22 20
-54 42 -72 50 -44 19 -4 18 53 -2 24 -8 46 -13 48 -10 3 3 -1 22 -7 43 -25 75
-69 150 -129 216 -33 36 -65 76 -72 89 -21 38 140 -113 171 -162z m-830 -7 c0
-22 -13 -26 -16 -5 0 4 -6 18 -13 32 -11 24 -11 23 -6 -10 3 -19 13 -42 24
-51 18 -15 18 -16 -5 -42 -13 -15 -25 -24 -27 -19 -2 4 -5 44 -6 90 l-2 82 25
-25 c15 -15 26 -37 26 -52z m-65 -55 c-3 -35 -9 -119 -15 -188 -5 -69 -9 -162
-10 -208 0 -46 -2 -87 -5 -92 -3 -4 -7 -36 -10 -71 -3 -35 -8 -86 -12 -114 -3
-27 -7 -59 -8 -69 -1 -11 -12 -26 -23 -34 -23 -15 -28 -45 -13 -84 6 -16 4
-42 -6 -79 -8 -30 -17 -63 -20 -75 -3 -11 -19 -65 -37 -120 -28 -86 -35 -99
-57 -102 -40 -6 -45 -17 -42 -90 3 -53 0 -72 -12 -82 -8 -7 -15 -16 -15 -21 0
-16 -75 -124 -89 -127 -8 -2 -11 3 -8 12 4 10 -2 20 -13 26 -11 6 -20 8 -20 5
0 -4 -5 -3 -10 0 -6 4 -1 19 13 38 27 37 40 77 57 167 6 36 13 75 16 88 3 14
12 22 24 22 25 0 26 15 1 32 -16 12 -18 20 -10 58 4 25 8 62 9 83 0 44 8 46
40 12 13 -14 21 -25 17 -25 -3 0 -1 -14 5 -31 15 -42 32 -22 23 28 -6 38 -28
69 -70 98 -19 13 -19 14 -2 50 15 32 16 39 2 57 -10 15 -11 25 -4 34 7 9 -5
19 -47 41 -32 15 -62 37 -68 48 -6 11 -19 32 -29 48 -15 22 -17 31 -6 43 10
12 9 20 -1 39 -7 13 -10 31 -6 40 4 13 2 16 -9 11 -28 -11 -45 4 -38 35 5 26
3 29 -20 29 -14 0 -28 7 -31 16 -4 11 -14 14 -35 9 -22 -5 -32 -2 -43 13 -7
11 -24 23 -38 27 -14 4 -45 16 -70 27 -29 14 -45 17 -48 9 -5 -15 -22 -14 -22
1 0 6 -7 20 -17 30 -15 17 -15 18 10 18 31 0 36 23 10 40 -16 10 -15 11 5 7
26 -6 26 -7 8 28 -8 14 -15 22 -17 17 -2 -5 -14 -12 -26 -16 -20 -6 -23 -4
-21 19 2 17 9 27 23 30 69 13 89 14 102 3 11 -9 16 -9 23 1 4 8 13 10 20 6 6
-4 17 0 23 9 7 9 27 18 45 20 28 4 34 0 48 -27 27 -52 42 -62 62 -43 13 11 29
14 54 10 21 -4 38 -2 42 5 5 8 12 6 23 -4 23 -23 69 -16 65 10 -2 11 -5 44 -7
73 -2 30 -13 72 -25 93 -32 63 -28 76 25 77 43 0 45 -1 39 -24 -4 -15 -2 -24
5 -24 6 0 11 -6 11 -13 0 -18 149 -48 186 -38 24 6 30 13 32 42 3 31 41 79 64
79 4 0 5 -28 3 -62z m588 -56 c18 -18 59 -46 92 -62 92 -44 155 -118 155 -183
0 -13 -9 -3 -26 31 -29 58 -54 79 -135 111 -83 33 -127 85 -154 181 -5 20 -2
17 15 -10 12 -19 36 -50 53 -68z m-491 21 c10 -9 18 -28 19 -42 l1 -26 7 25
c11 37 25 -97 17 -161 -4 -27 -3 -49 2 -49 11 0 16 -34 15 -107 0 -35 3 -63 8
-63 14 0 3 -89 -14 -108 -18 -19 -24 -57 -8 -48 15 10 34 -21 24 -39 -9 -15
-11 -15 -23 0 -8 9 -14 33 -15 53 -1 40 -20 82 -35 82 -12 0 -13 -34 -3 -70
l7 -25 7 30 c6 25 7 22 8 -20 1 -27 6 -57 11 -65 8 -13 10 -13 10 -1 0 12 3
12 12 3 10 -9 8 -16 -5 -29 -15 -16 -17 -15 -25 8 -9 22 -10 20 -13 -18 -3
-23 -1 -39 3 -37 5 3 8 -2 8 -10 0 -21 -19 -20 -37 2 -14 16 -14 16 -9 -1 3
-10 6 -23 6 -28 0 -5 43 -9 97 -9 53 0 94 -2 92 -4 -10 -9 -349 -15 -349 -6 0
6 15 11 33 11 17 1 24 3 15 6 -13 3 -16 11 -11 36 8 44 13 46 13 6 0 -26 3
-30 10 -19 9 13 14 8 12 -12 -1 -3 5 -9 14 -12 10 -4 14 0 12 11 -2 9 3 18 11
21 10 3 12 0 8 -11 -3 -9 1 -17 12 -20 17 -4 18 2 15 65 -3 45 0 67 7 63 5 -4
7 -15 4 -26 -5 -14 -2 -17 9 -13 15 6 32 61 22 71 -3 4 -6 -3 -6 -15 0 -12 -4
-22 -9 -22 -14 0 -23 32 -11 44 5 5 10 15 10 20 0 6 -4 5 -9 -3 -6 -9 -8 8 -5
45 5 82 4 81 14 59 5 -13 7 6 5 50 -2 39 -1 58 1 43 3 -16 10 -28 15 -28 6 0
7 5 4 10 -8 14 14 42 27 34 5 -3 4 -12 -3 -20 -6 -8 -9 -17 -5 -21 3 -3 6 -1
6 6 0 7 5 9 10 6 6 -4 10 9 10 32 0 28 -9 51 -31 81 -19 25 -29 49 -25 58 5
14 9 14 23 3 15 -13 16 -10 10 30 -3 28 -12 48 -24 55 -28 16 -41 15 -38 -3 2
-15 -21 -51 -35 -51 -3 0 -7 34 -8 75 -1 61 2 76 16 84 9 6 13 11 7 11 -5 0
-3 5 5 10 20 13 20 13 42 -7z m1090 -67 c30 -7 29 -25 -4 -62 -18 -20 -26 -52
-49 -189 -10 -61 -12 -82 -9 -100 6 -30 -1 -36 -31 -30 -22 5 -34 3 -41 -6
-15 -24 4 42 34 115 34 83 52 183 45 241 -7 46 -11 44 55 31z m-1062 -105 c0
-11 -4 -9 -14 5 -15 19 -15 19 -15 -1 0 -11 -3 -31 -6 -45 -4 -18 1 -32 20
-52 23 -25 33 -48 20 -48 -3 0 -17 12 -30 28 -22 24 -24 34 -20 97 2 39 5 72
5 75 1 11 40 -46 40 -59z m-58 -88 c-3 -72 -8 -103 -20 -116 -15 -17 -15 -17
2 -11 14 5 17 3 14 -12 -2 -10 -8 -18 -14 -17 -5 1 -9 -12 -10 -28 -1 -15 3
-26 7 -23 5 3 9 -5 9 -16 0 -16 -4 -20 -16 -16 -9 3 -12 2 -8 -5 3 -6 8 -32
10 -57 4 -37 2 -43 -6 -29 -6 9 -8 22 -4 29 4 7 3 8 -4 4 -6 -3 -16 2 -22 13
-7 13 -7 22 0 26 5 3 10 11 10 16 0 6 -4 7 -10 4 -5 -3 -10 1 -10 10 0 11 5
15 15 11 18 -6 20 15 3 32 -8 8 -8 15 3 28 9 12 10 15 2 10 -8 -4 -13 -1 -13
9 0 9 4 14 9 11 5 -3 8 5 7 19 -1 27 -11 33 -19 13 -3 -7 -6 6 -6 30 -1 26 3
41 9 37 6 -3 10 4 10 17 0 43 12 69 27 63 10 -3 13 -1 10 9 -4 10 9 36 18 36
0 0 -2 -44 -3 -97z m764 -272 c-1 -129 -7 -142 -20 -45 -6 42 9 174 19 174 2
0 2 -58 1 -129z m-836 -21 c15 0 41 -69 38 -105 -1 -20 -10 -42 -19 -51 -15
-13 -17 -13 -24 3 -12 27 -16 44 -19 88 -4 40 -4 40 4 5 4 -19 8 -31 9 -27 0
5 6 5 11 2 8 -5 7 -11 0 -20 -9 -11 -7 -14 9 -12 27 2 27 19 1 35 -17 10 -19
16 -9 33 8 15 8 19 0 15 -6 -4 -11 0 -11 8 0 9 -4 16 -8 16 -5 0 -6 15 -3 33
5 31 6 31 9 5 2 -16 7 -28 12 -28z m203 -60 c3 -30 2 -44 -2 -30 -6 23 -8 23
-12 5 -3 -11 1 -36 7 -55 9 -24 13 -29 14 -15 1 20 1 20 9 0 11 -26 11 -26
-42 -30 -43 -3 -45 -3 -43 23 0 15 11 37 24 48 14 13 24 39 28 68 4 26 8 45 9
44 1 -2 5 -28 8 -58z m62 -225 c0 -61 0 -61 -27 -57 -16 3 -28 0 -28 -7 0 -6
5 -11 11 -11 5 0 8 -4 4 -10 -3 -5 -12 -7 -20 -3 -11 4 -13 1 -9 -11 6 -15 9
-15 28 3 27 26 44 28 25 4 -10 -14 -8 -13 10 2 l24 20 -7 -27 c-3 -16 -3 -28
2 -28 5 0 14 -11 20 -24 11 -26 6 -66 -10 -66 -5 0 -7 4 -3 9 3 5 0 13 -6 17
-8 4 -9 3 -5 -4 4 -7 3 -12 -2 -12 -5 0 -7 -12 -5 -27 3 -23 1 -21 -15 12 -14
29 -17 47 -10 64 11 29 -3 47 -29 37 -17 -7 -17 -8 0 -17 9 -6 17 -16 17 -24
0 -9 -6 -12 -17 -9 -15 5 -15 3 1 -7 17 -11 18 -13 4 -23 -9 -7 -18 -21 -21
-31 -2 -11 -3 -5 -1 13 1 17 -1 32 -6 32 -5 0 -12 11 -16 24 -5 23 -9 24 -62
19 -82 -7 -82 -7 -82 -60 -1 -66 -23 -166 -38 -171 -14 -4 -16 17 -3 51 7 18
5 26 -10 36 -11 6 -17 16 -14 21 3 6 -1 7 -9 4 -11 -4 -16 0 -16 11 0 12 5 15
20 10 14 -5 20 -2 20 9 0 9 -5 16 -11 16 -5 0 -7 -5 -3 -12 5 -7 3 -8 -5 -4
-9 6 -9 12 3 25 9 10 14 21 11 24 -3 4 -1 4 4 0 14 -13 22 -61 11 -68 -5 -3
-6 -13 -3 -21 5 -13 7 -13 14 -2 11 17 11 69 -1 88 -5 8 -5 19 -1 25 5 5 11
29 14 53 l5 42 -40 0 c-27 0 -45 -6 -54 -17 -7 -10 -14 -13 -14 -6 0 6 5 15
10 18 6 3 10 14 10 24 0 32 25 44 45 21 10 -11 22 -17 28 -13 6 4 29 6 51 4
34 -2 38 0 27 13 -7 8 -10 19 -7 25 3 5 -2 12 -11 15 -9 4 -20 1 -25 -6 -6
-10 -8 -10 -8 0 0 6 -9 12 -21 12 -15 0 -19 -4 -14 -19 3 -11 1 -22 -5 -26 -5
-3 -10 3 -10 14 0 25 -20 38 -31 20 -9 -16 -14 -12 -23 18 -7 22 -5 22 81 26
48 1 126 3 173 3 l85 -1 0 -60z m420 -26 c49 -45 65 -44 65 4 l1 32 19 -23
c48 -58 33 -150 -42 -250 -26 -36 -48 -74 -48 -84 0 -11 -9 -31 -20 -45 l-20
-25 -11 28 -11 29 -13 -24 -13 -24 -6 21 c-12 36 -34 26 -41 -20 l-7 -42 -19
39 c-21 42 -25 109 -9 149 12 34 -3 42 -29 15 l-19 -21 -11 38 c-14 50 3 120
35 140 17 12 37 14 79 9 48 -6 60 -12 85 -43 29 -35 41 -30 20 8 -14 27 -47
43 -100 50 -52 6 -61 24 -30 58 15 16 32 22 61 22 32 0 47 -7 84 -41z m-715
-99 c-4 -3 -10 -14 -13 -25 -7 -18 -6 -19 6 -3 8 10 17 15 20 12 3 -3 4 11 2
32 -4 34 -3 36 6 14 14 -34 4 -64 -25 -78 -14 -6 -23 -18 -23 -29 2 -13 -6
-19 -31 -21 -18 -2 -30 -8 -26 -13 3 -5 10 -7 15 -4 5 4 9 -1 9 -9 0 -9 -5
-16 -12 -16 -6 0 -4 -8 6 -19 12 -14 14 -24 7 -43 -8 -22 -7 -24 18 -24 15 1
31 9 38 21 14 22 16 11 4 -19 -4 -11 -19 -20 -37 -22 -109 -13 -138 -14 -126
-6 7 5 25 7 40 5 16 -3 22 -1 16 4 -21 15 -26 50 -8 57 11 4 15 14 12 31 -3
14 -1 25 4 25 5 0 7 4 3 10 -3 5 -3 21 1 35 5 21 9 24 16 13 7 -9 7 -3 3 17
-4 16 -3 27 1 23 4 -4 13 -3 21 3 9 9 13 8 13 0 0 -6 -4 -11 -10 -11 -5 0 -9
-11 -8 -24 1 -14 6 -22 10 -20 5 3 5 10 2 16 -4 6 -1 14 7 19 7 4 14 18 14 31
1 13 5 34 10 48 l9 25 6 -25 c4 -14 4 -27 0 -30z m1152 -26 c40 -37 77 -71 83
-75 5 -6 -10 -29 -40 -59 -38 -39 -46 -53 -37 -62 23 -23 14 -48 -17 -48 -23
0 -37 -9 -57 -35 -36 -48 -52 -55 -137 -61 -47 -3 -76 -10 -84 -20 -6 -9 -23
-14 -39 -12 -22 2 -30 10 -37 38 -5 19 -22 49 -38 65 -33 35 -39 61 -11 50 9
-4 61 -12 114 -18 124 -13 157 -5 181 47 16 33 17 44 6 92 -7 30 -18 59 -26
65 -18 15 -17 2 3 -57 13 -40 14 -54 3 -86 -10 -31 -18 -39 -46 -44 -36 -7
-229 9 -239 19 -15 15 11 28 45 23 20 -4 43 -2 51 4 11 7 2 10 -32 10 -27 0
-48 5 -48 10 0 6 21 11 48 12 l47 1 -42 4 c-24 2 -43 6 -43 8 0 2 10 15 23 27
13 13 28 30 33 38 23 38 187 130 231 130 25 0 46 -14 105 -66z m-1184 39 c-5
-31 -38 -45 -38 -17 0 8 4 13 9 10 5 -3 11 1 15 9 8 21 18 19 14 -2z m224 -57
c0 -3 8 -43 19 -88 10 -46 19 -86 19 -90 0 -5 -38 -8 -85 -8 l-85 0 5 38 c2
20 7 63 10 94 l6 57 52 3 c55 3 59 3 59 -6z m1223 -62 c10 3 17 -3 21 -19 3
-13 12 -29 20 -36 11 -9 11 -15 3 -25 -13 -16 -49 -19 -49 -5 0 5 -18 12 -40
16 -23 4 -40 12 -40 20 0 7 -3 20 -6 29 -4 11 0 16 14 16 12 0 24 5 27 10 5 8
11 7 21 -1 7 -6 21 -9 29 -5z m-1135 -10 c0 -8 -4 -13 -9 -10 -11 7 -8 -21 4
-31 4 -4 5 -2 0 6 -5 10 -4 12 3 7 9 -5 9 -13 1 -28 -9 -16 -8 -19 2 -16 7 2
18 24 24 49 6 24 13 39 16 34 15 -26 17 -45 7 -51 -7 -4 -8 -3 -4 4 4 7 2 12
-4 12 -7 0 -9 -7 -6 -16 3 -9 6 -20 6 -25 0 -5 5 -9 12 -9 6 0 8 3 5 7 -4 3
-2 12 3 19 6 6 9 16 8 20 -2 5 2 9 7 9 6 0 9 -4 7 -9 -6 -18 8 -57 18 -51 6 3
10 1 10 -4 0 -6 -5 -11 -11 -11 -5 0 -7 -4 -4 -10 3 -5 -3 -10 -14 -10 -12 0
-21 5 -21 11 0 5 4 8 9 4 5 -3 12 -1 15 4 4 5 2 12 -3 15 -14 9 -42 -5 -34
-17 3 -6 1 -7 -5 -3 -7 4 -12 14 -12 23 0 13 -3 13 -15 3 -8 -7 -15 -16 -15
-21 0 -5 7 -6 15 -3 8 4 15 1 15 -4 0 -18 71 -27 81 -11 6 9 9 10 9 2 0 -6 10
-14 23 -16 12 -2 -34 -4 -103 -4 -69 0 -107 3 -84 6 36 5 40 8 33 26 -7 19 -8
19 -8 1 -2 -38 -13 -6 -17 45 -2 35 1 56 9 61 19 12 27 10 27 -8z m1017 -44
c20 -18 45 -30 62 -30 16 0 36 -9 47 -21 19 -21 18 -21 -15 -51 -28 -25 -32
-35 -27 -59 5 -24 2 -29 -14 -29 -11 0 -34 13 -52 29 -19 16 -50 32 -69 36
-30 5 -38 13 -46 40 -9 27 -7 35 8 46 11 7 19 17 19 22 0 8 40 46 49 47 2 0
19 -13 38 -30z m-1306 -21 c-1 -13 -8 -27 -14 -31 -16 -10 -31 7 -21 24 5 7 9
16 10 21 1 4 2 10 3 13 0 3 7 4 14 1 6 -2 10 -15 8 -28z m1526 -85 c29 -32 26
-37 -15 -23 -29 10 -47 5 -91 -28 -3 -2 6 -15 20 -30 19 -21 20 -25 6 -20 -10
4 -23 7 -28 7 -5 0 -16 11 -25 25 -16 25 -16 26 17 60 43 43 82 46 116 9z
m-1317 -14 c0 -11 -4 -20 -10 -20 -5 0 -10 7 -10 15 0 8 -4 15 -10 15 -5 0
-10 -7 -10 -15 0 -21 -18 -19 -23 3 -3 9 -5 -7 -6 -35 -1 -38 -5 -53 -15 -53
-11 0 -12 8 -6 35 4 19 4 35 0 35 -5 0 -11 8 -13 18 -3 9 -5 -7 -6 -35 -1 -43
-4 -53 -18 -53 -11 0 -14 3 -7 8 9 6 10 35 4 77 -1 6 -5 2 -9 -9 -7 -17 -8
-17 -23 -2 -21 20 -32 21 -24 1 7 -19 -3 -45 -16 -45 -6 0 -8 9 -5 20 4 15 0
20 -14 20 -10 0 -19 7 -19 15 0 8 -4 15 -10 15 -8 0 -16 -72 -11 -102 0 -5
-30 -8 -69 -8 -38 0 -70 4 -70 9 0 16 24 29 60 34 28 3 25 4 -16 5 -50 2 -51
2 -46 32 4 25 9 30 33 30 25 0 29 -4 29 -26 0 -16 5 -24 13 -21 6 2 11 14 9
25 -2 12 1 22 7 22 5 0 11 -22 13 -50 2 -41 6 -48 18 -40 12 8 13 13 2 30 -10
16 -10 20 0 21 10 0 10 2 1 6 -19 7 -16 31 5 35 9 2 74 4 145 5 121 3 127 2
127 -17z m70 0 c0 -25 -27 -27 -33 -2 -3 11 -5 9 -6 -8 -1 -24 2 -25 41 -23
28 1 38 -1 29 -6 -8 -5 -21 -7 -30 -4 -11 4 -9 0 4 -10 23 -19 45 -22 45 -7 0
6 7 10 15 10 8 0 15 4 15 10 0 5 -8 7 -17 4 -10 -2 -8 1 5 7 12 7 22 20 22 31
0 10 5 18 10 18 6 0 10 -9 10 -20 0 -11 5 -20 11 -20 6 0 9 9 6 20 -4 17 0 20
28 20 31 0 33 -2 32 -35 -1 -44 -17 -46 -18 -2 -1 21 -3 25 -6 12 -3 -11 -10
-23 -17 -27 -8 -6 -7 -8 2 -8 6 0 12 -9 12 -20 0 -11 -7 -20 -15 -20 -16 0
-21 16 -6 22 5 2 3 9 -5 16 -12 11 -14 9 -14 -12 0 -24 -2 -25 -71 -24 -41 1
-65 5 -57 9 9 6 5 9 -13 9 -22 0 -25 4 -27 40 -3 37 -1 40 23 40 18 0 25 -5
25 -20z m40 -1 c0 -24 -23 -21 -28 4 -2 10 3 17 12 17 10 0 16 -9 16 -21z
m865 -20 c4 -5 19 -8 33 -5 15 3 34 1 42 -4 13 -9 13 -12 -2 -21 -10 -5 -18
-21 -18 -33 0 -17 -10 -28 -32 -39 -18 -9 -44 -30 -58 -46 -14 -17 -30 -31
-37 -31 -7 0 -13 -7 -13 -15 0 -8 -4 -15 -10 -15 -5 0 -10 -5 -10 -11 0 -5 5
-7 10 -4 6 3 10 1 10 -4 0 -6 -11 -11 -24 -11 -13 0 -26 -4 -28 -8 -1 -5 -15
-12 -30 -16 -26 -6 -28 -4 -28 26 0 36 -24 68 -52 68 -21 0 -23 16 -6 52 11
22 22 28 63 34 41 5 57 14 90 49 40 42 86 58 100 34z m-1202 -16 c4 -3 2 -12
-4 -19 -15 -18 -1 -36 22 -29 11 4 19 2 19 -4 0 -6 -13 -11 -30 -11 -28 0 -30
3 -30 35 0 33 8 43 23 28z m187 -17 c0 -23 3 -24 42 -21 29 3 38 1 28 -5 -8
-5 -31 -10 -50 -10 -32 0 -35 3 -37 30 -1 17 2 30 7 30 6 0 10 -11 10 -24z
m1181 -26 c5 0 9 -9 9 -20 0 -16 -7 -20 -30 -20 -22 0 -30 5 -30 18 0 24 10
34 28 27 7 -3 18 -5 23 -5z m-883 -32 c5 -25 -22 -27 -366 -33 -301 -6 -313
-5 -303 12 8 16 25 19 108 22 54 2 175 6 268 11 244 10 289 9 293 -12z m62
-75 c28 -36 25 -47 -5 -18 -35 36 -69 33 -46 -4 8 -12 12 -12 25 -2 19 16 22
1 4 -17 -7 -7 -9 -12 -6 -12 3 0 -6 -13 -21 -29 -27 -29 -52 -34 -68 -16 -4 4
-2 5 6 0 9 -5 12 -3 9 6 -3 8 -14 19 -26 25 -16 8 -19 13 -10 22 9 9 15 9 25
0 10 -8 17 -8 25 0 8 8 5 14 -13 20 -15 6 -26 6 -30 0 -3 -5 -10 -9 -15 -9 -5
1 -9 -3 -9 -9 0 -5 -4 -9 -10 -7 -11 2 -11 12 -1 45 6 16 3 22 -8 22 -9 0 -16
5 -16 11 0 5 4 8 10 4 15 -9 135 14 139 27 2 7 8 2 13 -11 4 -13 17 -34 28
-48z m376 10 c0 -18 -2 -33 -4 -33 -16 0 -42 24 -42 39 0 22 8 30 29 28 12 -1
17 -10 17 -34z m-61 17 c-11 -17 4 -46 29 -58 14 -6 26 -22 30 -43 9 -45 1
-47 -33 -10 -31 33 -74 41 -111 21 -15 -8 -21 -6 -30 10 -6 11 -8 25 -5 30 8
13 42 13 50 0 11 -18 25 0 25 31 0 24 4 29 26 29 14 0 23 -4 19 -10z m-725 -9
c0 -5 -9 -7 -20 -4 -11 3 -20 1 -20 -5 0 -5 11 -12 25 -14 23 -5 30 2 26 25 0
4 19 7 44 7 25 0 45 -4 45 -8 0 -5 -15 -7 -32 -4 -23 3 -30 1 -23 -6 6 -6 26
-12 45 -14 25 -2 35 1 35 12 0 8 8 16 17 18 16 3 20 -20 5 -34 -14 -14 -6 -21
23 -20 27 1 28 2 13 14 -15 11 -15 12 4 12 24 0 45 -21 35 -35 -9 -13 -45 -16
-52 -5 -3 5 -11 5 -19 1 -9 -6 -6 -10 13 -15 14 -3 26 -11 26 -17 0 -6 5 -7
11 -3 8 4 7 9 -2 16 -10 7 -8 8 8 3 12 -3 32 -8 44 -10 22 -4 51 -25 35 -25
-4 0 2 -12 13 -26 11 -15 18 -30 16 -34 -3 -5 -1 -11 5 -15 5 -3 10 -14 10
-23 0 -10 -18 2 -50 36 -27 29 -53 52 -57 52 -5 1 -26 9 -48 20 -22 11 -59 19
-82 20 -25 0 -43 5 -43 11 0 8 -5 8 -15 -1 -12 -10 -18 -10 -30 0 -8 7 -15 8
-15 2 0 -5 -20 -15 -44 -21 -25 -6 -48 -16 -51 -21 -5 -8 -12 -7 -23 2 -13 11
-15 10 -9 -5 4 -10 3 -16 -2 -13 -5 3 -16 -10 -26 -30 -9 -20 -19 -33 -23 -29
-3 3 -12 -5 -19 -17 -7 -13 -12 -17 -13 -10 0 7 -4 11 -9 7 -5 -3 -12 -1 -16
5 -3 5 3 10 14 10 11 0 22 9 26 21 6 17 9 19 16 8 5 -8 9 -9 9 -4 0 6 -5 17
-10 25 -8 13 -11 11 -16 -7 -3 -12 -13 -24 -21 -28 -27 -10 -25 2 2 29 21 21
30 24 40 16 11 -9 17 -5 29 18 8 16 12 32 9 36 -4 3 0 6 8 6 12 0 11 2 -1 11
-13 9 -13 10 0 6 8 -2 14 -10 13 -16 -2 -6 1 -11 5 -11 15 0 22 12 15 24 -13
19 -12 35 3 47 11 9 14 8 14 -5 0 -9 6 -16 14 -16 8 0 18 -5 22 -11 4 -8 -4
-9 -27 -5 -25 4 -29 4 -14 -3 11 -5 16 -10 12 -10 -5 -1 -5 -6 -2 -11 4 -6 12
-4 21 5 9 8 33 15 54 15 21 0 45 3 54 6 11 4 16 0 17 -12 0 -11 3 -14 5 -7 3
7 12 9 20 6 10 -4 12 0 8 12 -5 13 -18 16 -58 14 -77 -3 -90 -1 -104 21 -11
19 -10 20 28 20 22 0 40 -4 40 -9z m835 -45 c17 -12 25 -70 11 -83 -9 -9 -43
31 -49 58 -10 39 5 49 38 25z m-662 -84 c40 -19 75 -44 100 -73 21 -24 45 -52
54 -61 15 -17 15 -18 0 -18 -9 0 -32 -8 -52 -17 -30 -14 -38 -15 -60 -3 -21
11 -30 11 -45 2 -17 -10 -23 -7 -47 23 -20 25 -36 35 -55 35 -16 0 -28 5 -28
10 0 6 -11 10 -24 10 -14 0 -27 4 -30 9 -3 5 -16 11 -28 14 -13 2 -31 8 -40
12 -14 5 -18 2 -18 -14 0 -18 -6 -21 -40 -21 -22 0 -40 4 -40 8 0 5 14 21 30
37 83 79 211 98 323 47z"/>
<path d="M1234 2039 c-3 -6 1 -18 10 -27 15 -15 16 -14 16 11 0 27 -13 36 -26
16z"/>
<path d="M1221 1958 c0 -9 -6 -18 -13 -20 -7 -3 -8 -10 -4 -17 7 -11 10 -11
17 0 7 11 9 10 9 -3 0 -10 9 -27 20 -38 25 -25 26 -7 1 28 -10 15 -21 36 -24
47 -3 15 -5 16 -6 3z"/>
<path d="M1180 1912 c0 -4 5 -13 11 -19 8 -8 8 -17 0 -31 -14 -26 -14 -32 -1
-32 6 0 10 7 10 15 0 9 7 18 15 21 21 9 19 19 -10 38 -14 9 -25 13 -25 8z"/>
<path d="M1240 1547 c0 -8 7 -20 15 -27 8 -7 15 -24 16 -39 0 -14 3 -20 6 -12
4 10 7 10 13 1 4 -7 8 5 8 28 0 24 -5 46 -14 53 -9 7 -14 8 -14 1 0 -6 5 -14
10 -17 6 -3 10 -13 10 -22 0 -14 -2 -14 -20 2 -11 10 -17 21 -15 26 3 4 1 10
-5 14 -5 3 -10 0 -10 -8z"/>
<path d="M1235 1151 c-3 -5 3 -12 12 -14 17 -4 17 -5 1 -6 -10 0 -18 -6 -18
-12 0 -6 8 -8 19 -4 11 3 22 1 26 -5 8 -12 115 -14 115 -1 0 39 -30 53 -57 26
-13 -14 -18 -13 -48 5 -37 23 -42 24 -50 11z"/>
<path d="M1198 1063 c-30 -5 -34 -14 -42 -88 -5 -50 -5 -50 12 13 l16 64 58
-4 c42 -2 58 1 58 10 0 12 -42 14 -102 5z"/>
<path d="M1305 1040 c-4 -19 -1 -37 8 -50 14 -20 15 -20 20 -2 2 11 1 26 -4
33 -12 19 -11 42 1 34 6 -3 10 -1 10 4 0 25 -29 9 -35 -19z"/>
<path d="M1415 982 c3 -6 -1 -15 -9 -18 -24 -9 -19 -19 9 -20 29 -2 31 5 9 32
-8 10 -13 13 -9 6z"/>
<path d="M1026 832 c2 -3 -2 -12 -8 -20 -15 -17 -20 -44 -7 -36 5 3 9 -1 9 -8
0 -9 3 -9 10 2 15 23 12 33 -7 26 -15 -5 -15 -3 1 9 13 10 16 18 10 24 -6 5
-9 6 -8 3z"/>
<path d="M2473 771 c-10 -15 -9 -20 1 -24 18 -7 36 12 29 29 -7 19 -16 18 -30
-5z"/>
<path d="M1530 520 c39 -20 43 -20 34 4 -4 10 -17 16 -38 16 l-31 -1 35 -19z"/>
<path d="M1534 469 c-8 -14 11 -33 25 -25 6 4 11 11 11 16 0 13 -29 20 -36 9z"/>
<path d="M2566 2795 l-68 -44 -48 27 c-27 15 -51 24 -54 21 -3 -3 12 -25 35
-48 22 -24 45 -54 50 -68 9 -24 9 -24 48 24 39 50 90 97 113 106 9 3 10 8 3
16 -8 8 -29 -1 -79 -34z m-28 -55 c-23 -27 -43 -48 -43 -47 0 1 -14 20 -30 42
l-30 40 33 -23 32 -23 37 30 c21 17 39 31 41 31 2 0 -16 -22 -40 -50z"/>
<path d="M2560 2660 c0 -5 4 -10 8 -10 4 0 13 -15 20 -32 10 -26 14 -30 22
-18 6 9 5 17 -3 23 -8 5 -5 6 8 3 11 -3 31 1 45 9 21 11 22 15 8 20 -9 4 -25
2 -36 -4 -15 -8 -23 -7 -32 4 -14 17 -40 20 -40 5z"/>
<path d="M2105 2613 c-23 -6 -67 -33 -77 -48 -11 -15 -9 -85 2 -85 6 0 10 5
10 11 0 19 39 61 72 78 48 24 43 56 -7 44z m20 -23 c-3 -5 -13 -10 -21 -10 -8
0 -26 -11 -39 -25 -18 -17 -25 -20 -25 -9 0 8 15 23 33 34 34 21 62 27 52 10z"/>
<path d="M2125 2547 c-4 -10 -1 -27 8 -40 13 -20 12 -25 -11 -54 l-24 -33 25
0 c14 0 29 5 32 10 3 6 19 10 36 10 28 0 37 9 22 24 -5 4 -8 18 -8 29 0 17 -5
21 -22 19 -15 -2 -26 5 -37 25 -12 24 -15 26 -21 10z m61 -73 c0 -13 -6 -24
-13 -24 -6 0 -20 -3 -30 -7 -15 -5 -15 -2 4 18 17 19 20 28 11 37 -8 8 -6 10
9 6 14 -4 20 -13 19 -30z"/>
<path d="M1655 2475 c-17 -16 -25 -35 -25 -58 0 -39 15 -57 47 -57 45 0 74
108 34 130 -27 14 -29 13 -56 -15z m63 -23 c8 -52 -58 -99 -73 -52 -6 20 9 59
29 72 19 14 41 4 44 -20z"/>
<path d="M1589 2069 c-73 -122 -82 -246 -25 -343 26 -44 97 -113 193 -187 43
-34 67 -62 85 -100 80 -169 100 -207 122 -234 35 -41 43 -25 13 27 -14 24 -39
87 -57 142 -42 130 -73 177 -179 275 -114 104 -141 154 -141 260 0 67 17 145
45 214 4 10 3 17 -3 17 -6 0 -30 -32 -53 -71z m6 -54 c-22 -70 -19 -170 6
-225 13 -28 57 -81 123 -145 116 -113 145 -157 186 -280 34 -107 25 -99 -26
20 -42 97 -78 141 -193 229 -154 118 -188 246 -109 414 26 55 31 50 13 -13z"/>
<path d="M2665 1938 c-51 -40 -85 -106 -85 -164 0 -29 5 -65 11 -81 6 -15 11
-63 12 -105 1 -68 -3 -82 -27 -120 -52 -80 -145 -161 -233 -204 -46 -21 -83
-45 -83 -52 0 -19 42 -6 156 49 114 55 201 132 236 208 29 63 35 177 14 257
-9 34 -16 74 -16 89 0 31 38 125 51 125 5 0 9 5 9 10 0 16 -15 12 -45 -12z
m-14 -52 c-9 -10 -11 -38 -7 -88 3 -40 8 -113 12 -162 4 -55 2 -103 -5 -126
-24 -82 -120 -179 -233 -236 -69 -35 -69 -29 -2 14 70 46 154 133 183 190 25
49 28 126 7 224 -8 40 -11 81 -7 100 12 51 48 114 59 103 3 -2 -1 -11 -7 -19z"/>
<path d="M2627 654 c-15 -15 -5 -19 51 -21 36 -1 50 2 37 7 -36 14 -81 21 -88
14z"/>
<path d="M2640 625 c0 -9 150 -78 156 -72 10 9 -6 27 -24 27 -9 0 -39 12 -67
25 -50 25 -65 29 -65 20z"/>
<path d="M2660 575 c19 -20 36 -31 38 -26 4 11 -47 60 -62 61 -6 0 6 -16 24
-35z"/>
<path d="M883 519 c-26 -9 -29 -19 -11 -37 7 -7 8 -12 2 -12 -5 0 -15 5 -21
11 -8 8 -14 5 -22 -10 -9 -16 -9 -21 1 -20 28 1 49 16 63 43 18 34 17 36 -12
25z"/>
<path d="M915 507 c-20 -28 -15 -30 30 -8 38 18 38 18 11 23 -19 4 -31 0 -41
-15z"/>
<path d="M933 480 c-29 -15 -31 -19 -18 -36 7 -10 15 -17 17 -14 15 19 39 62
36 65 -2 1 -17 -5 -35 -15z"/>
<path d="M2665 440 c-4 -6 -7 -23 -7 -39 -1 -22 -5 -27 -19 -24 -11 3 -21 -1
-25 -11 -3 -9 -12 -16 -20 -16 -8 0 -14 -4 -14 -10 0 -5 -6 -10 -14 -10 -31 0
-45 -112 -16 -130 8 -5 9 -9 1 -14 -19 -12 -12 -36 9 -36 18 0 19 -3 10 -20
-7 -14 -7 -20 0 -20 5 0 10 -8 10 -18 0 -11 19 -28 51 -46 53 -28 61 -28 64 2
1 9 7 28 12 42 17 42 24 162 13 215 -6 28 -12 66 -14 86 -5 53 -24 76 -41 49z
m24 -53 c-2 -18 0 -38 5 -45 12 -19 20 -118 11 -139 -4 -10 -7 -35 -6 -55 2
-22 -2 -38 -8 -38 -6 0 -11 -11 -11 -23 0 -30 -8 -38 -29 -27 -9 5 -25 12 -36
15 -13 5 -15 9 -7 12 18 7 14 33 -5 33 -14 0 -18 9 -19 35 0 19 -9 44 -19 55
-16 18 -17 23 -5 30 11 7 12 12 4 20 -19 19 -4 48 32 65 19 9 34 21 34 27 0 6
9 8 20 5 17 -4 20 0 20 29 0 19 5 34 11 34 6 0 9 -14 8 -33z"/>
</g>
</svg>
